<svg width="70" height="70" viewBox="0 0 70 70" fill="none" xmlns="http://www.w3.org/2000/svg">
<path d="M30.6454 15.3944C29.3739 15.3944 28.4579 16.3104 28.4579 17.5751C28.4579 18.8397 29.3807 19.7557 30.6454 19.7557C31.9169 19.7557 32.8329 18.8397 32.8329 17.5751C32.8397 16.3173 31.9169 15.3944 30.6454 15.3944ZM57.5722 21.9843C56.6288 21.0409 55.3368 20.5145 53.9354 20.5145C53.6688 20.5145 53.4296 20.5419 53.204 20.5829V20.5145H52.9579C52.5819 18.4227 51.6864 16.3788 50.3534 14.5399C49.0751 12.7831 47.4139 11.2655 45.5136 10.1034L47.2294 7.65613V7.43054C47.2294 7.37585 47.2567 7.27332 47.2772 7.17078C47.3182 7.00671 47.3729 6.7948 47.3729 6.56238C47.3729 5.29773 46.4501 4.38171 45.1854 4.38171C44.5155 4.38171 43.8524 4.77136 43.4149 5.43445L41.412 8.31238C39.3612 7.64246 37.1464 7.28699 34.9999 7.28699C32.8602 7.28699 30.6454 7.64246 28.5878 8.31238L26.5917 5.42761C26.1405 4.77136 25.4911 4.37488 24.8143 4.37488C23.5428 4.37488 22.6268 5.29089 22.6268 6.55554C22.6268 6.97937 22.7977 7.43054 23.0848 7.745L24.6298 9.953C22.6678 11.1151 20.9725 12.6464 19.6942 14.4032C18.368 16.2421 17.5067 18.286 17.1854 20.3778H16.8094V20.4462C16.5907 20.4052 16.3514 20.3778 16.078 20.3778C14.6903 20.3778 13.3983 20.8905 12.4481 21.8339C11.5048 22.7772 10.9784 24.0624 10.9784 25.4569V41.5214C10.9784 42.9091 11.4911 44.1942 12.4413 45.1376C13.3846 46.0809 14.6835 46.6073 16.078 46.6073C16.3446 46.6073 16.5839 46.58 16.8094 46.5389V52.9305C16.8094 54.9266 18.4432 56.5604 20.4462 56.5604H22.6268V60.5458C22.6268 61.9335 23.1395 63.2186 24.0897 64.162C25.0331 65.1053 26.3319 65.6317 27.7264 65.6317C29.1141 65.6317 30.4061 65.119 31.3563 64.1757C32.2997 63.2323 32.8261 61.9471 32.8261 60.5526V56.5741H37.1874V60.5458C37.1874 61.9335 37.7001 63.2186 38.6503 64.162C39.5936 65.1053 40.8925 65.6317 42.287 65.6317C43.6815 65.6317 44.9667 65.119 45.9169 64.1552C46.8602 63.2118 47.3866 61.9266 47.3866 60.5321V56.5536H49.5673C51.5702 56.5536 53.204 54.9266 53.204 52.9237V46.6757C53.4227 46.7167 53.662 46.744 53.9354 46.744C55.3231 46.744 56.6151 46.2313 57.5653 45.288C58.5087 44.3446 59.035 43.0594 59.035 41.6649V25.6005C59.0282 24.2128 58.5155 22.9344 57.5722 21.9843ZM16.8163 41.6718C16.8163 42.1366 16.5497 42.3964 16.0848 42.3964C15.62 42.3964 15.3534 42.1366 15.3534 41.6718V25.6005C15.3534 25.1356 15.62 24.8759 16.0848 24.8759C16.5497 24.8759 16.8163 25.1356 16.8163 25.6005V41.6718ZM25.7782 14.5468C28.3417 12.6805 31.6093 11.6552 35.0067 11.6552C38.4042 11.6552 41.6718 12.6874 44.2352 14.5604C46.4501 16.1805 47.9403 18.2655 48.5214 20.5419H21.4921C22.0731 18.2587 23.577 16.1669 25.7782 14.5468ZM28.4647 60.6688C28.4237 61.0516 28.1639 61.2635 27.747 61.2635C27.2821 61.2635 27.0155 61.0038 27.0155 60.5389V56.5604H28.4647V60.6688ZM42.2938 61.2635C41.829 61.2635 41.5624 61.0038 41.5624 60.5389V56.5604H43.0116V60.6688C42.9706 61.0516 42.7177 61.2635 42.2938 61.2635ZM48.8427 52.1991H21.1844V24.8827H48.8427V52.1991ZM54.6669 41.6718C54.6669 42.1366 54.4003 42.3964 53.9354 42.3964C53.4706 42.3964 53.204 42.1366 53.204 41.6718V25.6005C53.204 25.1356 53.4706 24.8759 53.9354 24.8759C54.4003 24.8759 54.6669 25.1356 54.6669 25.6005V41.6718ZM39.3817 15.3944C38.1102 15.3944 37.1942 16.3104 37.1942 17.5751C37.1942 18.8397 38.1171 19.7557 39.3817 19.7557C40.6532 19.7557 41.5761 18.8397 41.5761 17.5682C41.5692 16.2968 40.66 15.3944 39.3817 15.3944Z" fill="white"/>
</svg>
