<svg width="32" height="41" viewBox="0 0 32 41" fill="none" xmlns="http://www.w3.org/2000/svg">
<path d="M13.5237 7.96568C12.7006 7.96568 12.1076 8.55866 12.1076 9.37733C12.1076 10.196 12.705 10.789 13.5237 10.789C14.3468 10.789 14.9397 10.196 14.9397 9.37733C14.9442 8.56309 14.3468 7.96568 13.5237 7.96568ZM30.9548 12.2316C30.3441 11.6209 29.5077 11.2802 28.6005 11.2802C28.4279 11.2802 28.2731 11.2979 28.127 11.3245V11.2802H27.9677C27.7243 9.92607 27.1446 8.60291 26.2817 7.41252C25.4542 6.27523 24.3788 5.29282 23.1486 4.54052L24.2593 2.95628V2.81025C24.2593 2.77484 24.277 2.70846 24.2903 2.64209C24.3169 2.53588 24.3523 2.3987 24.3523 2.24824C24.3523 1.42956 23.7549 0.836579 22.9362 0.836579C22.5025 0.836579 22.0733 1.08882 21.79 1.51807L20.4934 3.3811C19.1659 2.94743 17.7321 2.71731 16.3425 2.71731C14.9574 2.71731 13.5237 2.94743 12.1917 3.3811L10.8995 1.51364C10.6074 1.08882 10.187 0.832153 9.74891 0.832153C8.92581 0.832153 8.33282 1.42514 8.33282 2.24381C8.33282 2.51818 8.44346 2.81025 8.62932 3.01381L9.62943 4.44317C8.35937 5.19546 7.26191 6.18672 6.43439 7.32401C5.57588 8.51441 5.0183 9.83756 4.81031 11.1917H4.56692V11.2359C4.42532 11.2094 4.27043 11.1917 4.09342 11.1917C3.19509 11.1917 2.35872 11.5236 1.74361 12.1343C1.13292 12.745 0.792175 13.5769 0.792175 14.4797V24.879C0.792175 25.7774 1.12407 26.6093 1.73918 27.22C2.34987 27.8307 3.19067 28.1714 4.09342 28.1714C4.26601 28.1714 4.42089 28.1537 4.56692 28.1272V32.2648C4.56692 33.557 5.62456 34.6146 6.92116 34.6146H8.33282V37.1945C8.33282 38.0929 8.66472 38.9248 9.27983 39.5355C9.89052 40.1462 10.7313 40.4869 11.6341 40.4869C12.5324 40.4869 13.3688 40.155 13.9839 39.5443C14.5946 38.9337 14.9353 38.1017 14.9353 37.199V34.6235H17.7586V37.1945C17.7586 38.0929 18.0905 38.9248 18.7056 39.5355C19.3163 40.1462 20.1571 40.4869 21.0599 40.4869C21.9626 40.4869 22.7946 40.155 23.4097 39.5311C24.0204 38.9204 24.3611 38.0884 24.3611 37.1857V34.6102H25.7728C27.0694 34.6102 28.127 33.557 28.127 32.2604V28.2157C28.2686 28.2422 28.4235 28.2599 28.6005 28.2599C29.4989 28.2599 30.3352 27.928 30.9503 27.3173C31.561 26.7067 31.9018 25.8747 31.9018 24.972V14.5726C31.8973 13.6743 31.5655 12.8467 30.9548 12.2316ZM4.57135 24.9764C4.57135 25.2773 4.39876 25.4455 4.09785 25.4455C3.79693 25.4455 3.62434 25.2773 3.62434 24.9764V14.5726C3.62434 14.2717 3.79693 14.1035 4.09785 14.1035C4.39876 14.1035 4.57135 14.2717 4.57135 14.5726V24.9764ZM10.3729 7.41694C12.0323 6.20885 14.1476 5.54506 16.347 5.54506C18.5463 5.54506 20.6616 6.21327 22.3211 7.42579C23.7549 8.47458 24.7196 9.82429 25.0957 11.2979H7.59823C7.97438 9.81986 8.94794 8.46573 10.3729 7.41694ZM12.112 37.2742C12.0854 37.522 11.9173 37.6592 11.6473 37.6592C11.3464 37.6592 11.1738 37.491 11.1738 37.1901V34.6146H12.112V37.2742ZM21.0643 37.6592C20.7634 37.6592 20.5908 37.491 20.5908 37.1901V34.6146H21.529V37.2742C21.5024 37.522 21.3387 37.6592 21.0643 37.6592ZM25.3037 31.7913H7.39909V14.1079H25.3037V31.7913ZM29.074 24.9764C29.074 25.2773 28.9014 25.4455 28.6005 25.4455C28.2996 25.4455 28.127 25.2773 28.127 24.9764V14.5726C28.127 14.2717 28.2996 14.1035 28.6005 14.1035C28.9014 14.1035 29.074 14.2717 29.074 14.5726V24.9764ZM19.1791 7.96568C18.356 7.96568 17.7631 8.55866 17.7631 9.37733C17.7631 10.196 18.3605 10.789 19.1791 10.789C20.0022 10.789 20.5997 10.196 20.5997 9.37291C20.5952 8.54981 20.0067 7.96568 19.1791 7.96568Z" fill="#4B3C83"/>
</svg>
