<svg width="32" height="38" viewBox="0 0 32 38" fill="none" xmlns="http://www.w3.org/2000/svg">
<path d="M26.0744 19.7062C26.0567 16.6881 27.4241 14.4136 30.1855 12.7364C28.6411 10.5238 26.3045 9.3068 23.2245 9.07226C20.3083 8.84215 17.1177 10.7716 15.9494 10.7716C14.7147 10.7716 11.8914 9.15192 9.66995 9.15192C5.08538 9.22272 0.213165 12.8072 0.213165 20.1C0.213165 22.2551 0.607014 24.481 1.39471 26.7733C2.44792 29.7913 6.2448 37.186 10.2054 37.0665C12.2764 37.0178 13.7412 35.5973 16.4362 35.5973C19.0515 35.5973 20.4056 37.0665 22.7156 37.0665C26.7116 37.0089 30.1456 30.287 31.1457 27.2601C25.7868 24.7333 26.0744 19.8611 26.0744 19.7062ZM25.6053 31.5216C24.9725 32.4022 24.3353 33.097 23.7511 33.544C23.2865 33.898 22.928 34.0484 22.6891 34.0573C22.2908 34.0529 21.9058 33.9555 21.1535 33.6679C21.1004 33.6457 21.0429 33.6236 20.9676 33.5971L20.7729 33.5218C20.0029 33.2253 19.5427 33.066 18.9542 32.9112C18.1311 32.6987 17.3124 32.5837 16.4362 32.5837C15.5423 32.5837 14.7015 32.6943 13.8651 32.9023C13.25 33.0572 12.7322 33.2298 11.9755 33.513C11.9445 33.5263 11.6171 33.6502 11.5241 33.6856C11.3693 33.7431 11.2498 33.7874 11.1391 33.8272C10.6789 33.9865 10.3868 34.0529 10.1258 34.0573C10.0948 34.0573 10.0682 34.0529 10.0461 34.0484C9.99742 34.0396 9.93547 34.0219 9.86466 33.9909C9.66553 33.9113 9.42656 33.7652 9.15662 33.5572C8.53708 33.0749 7.85559 32.3182 7.16083 31.349C5.94388 29.6409 4.79331 27.3751 4.24015 25.7865C3.55866 23.804 3.22234 21.9055 3.22234 20.0956C3.22234 17.4316 4.01004 15.4048 5.36417 14.0286C6.52801 12.8514 8.09456 12.1921 9.69208 12.1567C9.95317 12.1611 10.3337 12.2231 10.8161 12.3558C11.1967 12.4576 11.6126 12.5948 12.1746 12.7939C12.3428 12.8559 12.9225 13.0639 12.9933 13.0904C13.3341 13.2143 13.5907 13.3028 13.843 13.3825C14.6484 13.6391 15.2723 13.7807 15.9494 13.7807C16.6353 13.7807 17.2239 13.6347 18.0602 13.3471C18.3744 13.2409 19.5162 12.816 19.7197 12.7452C20.8526 12.3425 21.689 12.1257 22.4103 12.0726C22.6227 12.0549 22.813 12.0549 22.9944 12.0682C23.9989 12.1478 24.8575 12.347 25.5876 12.6789C23.9237 14.5994 23.0652 16.9492 23.0696 19.6885C23.0564 20.339 23.1095 21.0913 23.2953 21.9808C23.5785 23.3305 24.1184 24.6669 24.9725 25.9192C25.623 26.8707 26.4284 27.7292 27.3931 28.477C26.8842 29.5258 26.2603 30.61 25.6053 31.5216ZM21.4234 6.20912C23.6671 3.54511 23.4635 1.12007 23.3971 0.248291C21.4146 0.363348 19.1223 1.598 17.8169 3.11586C16.3786 4.74436 15.5334 6.75785 15.7149 9.02801C17.8567 9.19175 19.8127 8.08986 21.4234 6.20912Z" fill="#4B3C83"/>
</svg>
