<svg width="70" height="70" viewBox="0 0 70 70" fill="none" xmlns="http://www.w3.org/2000/svg">
<path d="M51.0918 36.62C51.0644 31.9579 53.1768 28.4442 57.4424 25.8534C55.0566 22.4354 51.4473 20.5555 46.6894 20.1932C42.1846 19.8378 37.2559 22.8182 35.4512 22.8182C33.5439 22.8182 29.1826 20.3163 25.751 20.3163C18.6689 20.4257 11.1426 25.9628 11.1426 37.2284C11.1426 40.5575 11.751 43.996 12.9678 47.537C14.5947 52.1991 20.46 63.6219 26.5781 63.4374C29.7773 63.3622 32.04 61.1678 36.2031 61.1678C40.2432 61.1678 42.335 63.4374 45.9033 63.4374C52.0762 63.3485 57.3809 52.9647 58.9258 48.2889C50.6475 44.3856 51.0918 36.8593 51.0918 36.62ZM50.3672 54.8719C49.3896 56.2323 48.4053 57.3055 47.5029 57.996C46.7852 58.5428 46.2314 58.7753 45.8623 58.7889C45.2471 58.7821 44.6523 58.6317 43.4902 58.1874C43.4082 58.1532 43.3193 58.119 43.2031 58.078L42.9023 57.9618C41.7129 57.5038 41.0019 57.2577 40.0928 57.0184C38.8213 56.6903 37.5566 56.5126 36.2031 56.5126C34.8223 56.5126 33.5234 56.6835 32.2314 57.0048C31.2812 57.244 30.4814 57.5106 29.3125 57.9481C29.2646 57.9686 28.7588 58.16 28.6152 58.2147C28.376 58.3036 28.1914 58.3719 28.0205 58.4335C27.3096 58.6796 26.8584 58.7821 26.4551 58.7889C26.4072 58.7889 26.3662 58.7821 26.332 58.7753C26.2568 58.7616 26.1611 58.7343 26.0518 58.6864C25.7441 58.5634 25.375 58.3378 24.958 58.0165C24.001 57.2714 22.9482 56.1024 21.875 54.6053C19.9951 51.9667 18.2178 48.4667 17.3633 46.0126C16.3105 42.9501 15.791 40.0175 15.791 37.2216C15.791 33.1063 17.0078 29.9755 19.0996 27.8495C20.8975 26.0311 23.3174 25.0126 25.7852 24.9579C26.1885 24.9647 26.7764 25.0604 27.5215 25.2655C28.1094 25.4227 28.752 25.6346 29.6201 25.9423C29.8799 26.038 30.7754 26.3593 30.8848 26.4003C31.4111 26.5917 31.8076 26.7284 32.1973 26.8514C33.4414 27.2479 34.4053 27.4667 35.4512 27.4667C36.5107 27.4667 37.4199 27.2411 38.7119 26.7968C39.1973 26.6327 40.9609 25.9764 41.2754 25.8671C43.0254 25.245 44.3174 24.91 45.4316 24.828C45.7598 24.8007 46.0537 24.8007 46.334 24.8212C47.8857 24.9442 49.2119 25.2518 50.3398 25.7645C47.7695 28.7313 46.4434 32.3612 46.4502 36.5927C46.4297 37.5975 46.5117 38.7596 46.7988 40.1337C47.2363 42.2186 48.0703 44.2831 49.3896 46.2177C50.3945 47.6874 51.6387 49.0135 53.1289 50.1688C52.3428 51.7889 51.3789 53.4637 50.3672 54.8719ZM43.9072 15.7704C47.373 11.6552 47.0586 7.90906 46.9561 6.56238C43.8936 6.74011 40.3525 8.64734 38.3359 10.9921C36.1143 13.5077 34.8086 16.618 35.0889 20.1249C38.3975 20.3778 41.4189 18.6757 43.9072 15.7704Z" fill="white"/>
</svg>
