<svg width="59" height="52" viewBox="0 0 59 52" fill="none" xmlns="http://www.w3.org/2000/svg">
<g clip-path="url(#clip0)">
<path d="M12.9932 0.40918L0.965942 13.3815L1.65322 14.2405L30.0032 51.9546L59.0405 13.3815L46.9273 0.40918H12.9932ZM14.11 2.98645H45.7246L55.5182 13.5533L30.0032 47.6592L4.3164 13.5533L14.11 2.98645Z" fill="white"/>
<path d="M15.0551 2.29907L12.9073 3.67362L20.2096 15.4432L22.3573 14.0686L15.0551 2.29907Z" fill="white"/>
<path d="M45.6386 2.29907L38.3364 14.0686L40.4841 15.4432L47.7864 3.67362L45.6386 2.29907Z" fill="white"/>
<path d="M40.0548 22.1442L37.3057 24.3778C38.3366 11.2337 31.7216 4.70463 30.0034 3.15827C28.8007 4.18918 25.4502 7.45373 23.7321 13.2955C22.7011 16.7319 22.3575 20.5119 22.7011 24.5496L19.8661 21.5428C19.8661 18.4501 20.2957 15.3574 21.2407 12.3505C23.7321 4.361 28.7148 0.838725 28.9725 0.666907L29.6598 0.40918H30.2611L31.0343 0.666907C31.2062 0.838725 36.2748 4.361 38.7661 12.3505C39.7112 15.5292 40.0548 18.7937 40.0548 22.1442Z" fill="white"/>
<path d="M30.0034 51.9543L28.7148 49.8925C28.7148 49.6347 25.2784 20.8552 55.6043 12.522C55.862 12.4361 57.3225 12.0066 57.5802 11.9207L58.9548 13.3811L30.0034 51.9543ZM53.3707 15.8725C43.2334 19.3088 36.4466 25.752 33.182 34.8584C31.6357 39.1538 31.2061 43.1916 31.1202 45.9407L53.3707 15.8725Z" fill="white"/>
<path d="M30.0033 51.9543L31.292 49.8925C31.292 49.6347 34.7283 20.8552 4.40243 12.522C4.1447 12.4361 2.68425 12.0066 2.42652 11.9207L0.966064 13.3811L30.0033 51.9543ZM6.55016 15.8725C16.6874 19.3088 23.4742 25.752 26.7388 34.8584C28.2852 39.1538 28.7147 43.1916 28.8006 45.9407L6.55016 15.8725Z" fill="white"/>
<path d="M13.165 18.2781C12.9073 18.2781 12.6496 18.1922 12.3919 18.0204C11.7905 17.5909 11.7046 16.7318 12.1341 16.2163L17.2887 9.34358C17.5464 8.99994 17.9759 8.82812 18.4055 8.82812C18.835 8.82812 19.2646 9.08585 19.4364 9.42949L22.7009 14.7559C23.0446 15.3572 22.8728 16.1304 22.2714 16.5599C21.67 16.9036 20.8969 16.7318 20.4673 16.1304L18.1478 12.4363L14.11 17.8486C13.9382 18.1063 13.5087 18.2781 13.165 18.2781Z" fill="white"/>
<path d="M47.443 18.2781C47.0135 18.2781 46.6698 18.1063 46.4121 17.7626L42.3744 12.3504L40.0548 16.0445C39.7112 16.6458 38.8521 16.8176 38.2507 16.474C37.6494 16.1304 37.4776 15.2713 37.8212 14.6699L41.0857 9.34355C41.3435 8.99991 41.6871 8.74219 42.1167 8.74219C42.5462 8.74219 42.9757 8.91401 43.2335 9.25764L48.388 16.1304C48.8176 16.7317 48.7317 17.5049 48.1303 17.9345C47.9585 18.1922 47.7007 18.2781 47.443 18.2781Z" fill="white"/>
</g>
<defs>
<clipPath id="clip0">
<rect width="57.9886" height="51.5455" fill="white" transform="translate(0.965942 0.40918)"/>
</clipPath>
</defs>
</svg>
